<svg width="265" height="264" viewBox="0 0 265 264" fill="none" xmlns="http://www.w3.org/2000/svg">
<g filter="url(#filter0_d_3_211)">
<rect x="6" y="6" width="253" height="251.948" rx="10.5198" fill="#FCFCFC" shape-rendering="crispEdges"/>
<path d="M132.5 66.7178C105.973 66.7178 84.5037 88.1849 84.5037 114.714C84.5037 141.241 105.971 162.71 132.5 162.71C159.027 162.71 180.496 141.243 180.496 114.714C180.496 88.1868 159.029 66.7178 132.5 66.7178ZM121.08 134.961C121.08 134.961 104.502 118.376 103.31 117.187C100.659 114.536 100.659 110.222 103.31 107.574C105.968 104.916 110.266 104.916 112.923 107.574L123.656 118.306C124.99 119.641 127.156 119.631 128.479 118.29L152.044 94.3852C154.693 91.6982 159.02 91.68 161.691 94.3513C164.322 96.9817 164.338 101.277 161.725 103.928C136.135 129.892 131.275 134.958 131.275 134.958C128.466 137.768 123.891 137.77 121.08 134.961Z" fill="#5DA83C"/>
<path d="M68.2743 180.078C69.4903 180.078 70.541 180.308 71.4263 180.766C72.3223 181.214 73.005 181.86 73.4743 182.702C73.9543 183.545 74.1943 184.537 74.1943 185.678C74.1943 186.82 73.9543 187.812 73.4743 188.654C73.005 189.486 72.3223 190.126 71.4263 190.574C70.541 191.012 69.4903 191.23 68.2743 191.23H64.8023V180.078H68.2743ZM68.2743 190.03C69.7143 190.03 70.813 189.652 71.5703 188.894C72.3276 188.126 72.7063 187.054 72.7063 185.678C72.7063 184.292 72.3223 183.209 71.5543 182.43C70.797 181.652 69.7036 181.262 68.2743 181.262H66.2583V190.03H68.2743ZM84.1148 186.51C84.1148 186.788 84.0988 187.081 84.0668 187.39H77.0588C77.1121 188.254 77.4055 188.932 77.9388 189.422C78.4828 189.902 79.1388 190.142 79.9068 190.142C80.5361 190.142 81.0588 189.998 81.4748 189.71C81.9015 189.412 82.2001 189.017 82.3708 188.526H83.9388C83.7041 189.369 83.2348 190.057 82.5308 190.59C81.8268 191.113 80.9521 191.374 79.9068 191.374C79.0748 191.374 78.3281 191.188 77.6668 190.814C77.0161 190.441 76.5041 189.913 76.1308 189.23C75.7575 188.537 75.5708 187.737 75.5708 186.83C75.5708 185.924 75.7521 185.129 76.1148 184.446C76.4775 183.764 76.9841 183.241 77.6348 182.878C78.2961 182.505 79.0535 182.318 79.9068 182.318C80.7388 182.318 81.4748 182.5 82.1148 182.862C82.7548 183.225 83.2455 183.726 83.5868 184.366C83.9388 184.996 84.1148 185.71 84.1148 186.51ZM82.6108 186.206C82.6108 185.652 82.4881 185.177 82.2428 184.782C81.9975 184.377 81.6615 184.073 81.2348 183.87C80.8188 183.657 80.3548 183.55 79.8428 183.55C79.1068 183.55 78.4775 183.785 77.9548 184.254C77.4428 184.724 77.1495 185.374 77.0748 186.206H82.6108ZM87.8127 183.662V188.83C87.8127 189.257 87.9033 189.561 88.0847 189.742C88.266 189.913 88.5807 189.998 89.0287 189.998H90.1007V191.23H88.7887C87.978 191.23 87.37 191.044 86.9647 190.67C86.5593 190.297 86.3567 189.684 86.3567 188.83V183.662H85.2207V182.462H86.3567V180.254H87.8127V182.462H90.1007V183.662H87.8127ZM91.3208 186.814C91.3208 185.918 91.5021 185.134 91.8648 184.462C92.2275 183.78 92.7235 183.252 93.3528 182.878C93.9928 182.505 94.7021 182.318 95.4808 182.318C96.2488 182.318 96.9155 182.484 97.4808 182.814C98.0461 183.145 98.4675 183.561 98.7448 184.062V182.462H100.217V191.23H98.7448V189.598C98.4568 190.11 98.0248 190.537 97.4488 190.878C96.8835 191.209 96.2221 191.374 95.4648 191.374C94.6861 191.374 93.9821 191.182 93.3528 190.798C92.7235 190.414 92.2275 189.876 91.8648 189.182C91.5021 188.489 91.3208 187.7 91.3208 186.814ZM98.7448 186.83C98.7448 186.169 98.6115 185.593 98.3448 185.102C98.0781 184.612 97.7155 184.238 97.2568 183.982C96.8088 183.716 96.3128 183.582 95.7688 183.582C95.2248 183.582 94.7288 183.71 94.2808 183.966C93.8328 184.222 93.4755 184.596 93.2088 185.086C92.9421 185.577 92.8088 186.153 92.8088 186.814C92.8088 187.486 92.9421 188.073 93.2088 188.574C93.4755 189.065 93.8328 189.444 94.2808 189.71C94.7288 189.966 95.2248 190.094 95.7688 190.094C96.3128 190.094 96.8088 189.966 97.2568 189.71C97.7155 189.444 98.0781 189.065 98.3448 188.574C98.6115 188.073 98.7448 187.492 98.7448 186.83ZM103.429 181.038C103.152 181.038 102.917 180.942 102.725 180.75C102.533 180.558 102.437 180.324 102.437 180.046C102.437 179.769 102.533 179.534 102.725 179.342C102.917 179.15 103.152 179.054 103.429 179.054C103.696 179.054 103.92 179.15 104.101 179.342C104.293 179.534 104.389 179.769 104.389 180.046C104.389 180.324 104.293 180.558 104.101 180.75C103.92 180.942 103.696 181.038 103.429 181.038ZM104.133 182.462V191.23H102.677V182.462H104.133ZM108.071 179.39V191.23H106.615V179.39H108.071ZM113.656 191.374C112.984 191.374 112.382 191.262 111.848 191.038C111.315 190.804 110.894 190.484 110.584 190.078C110.275 189.662 110.104 189.188 110.072 188.654H111.576C111.619 189.092 111.822 189.449 112.184 189.726C112.558 190.004 113.043 190.142 113.64 190.142C114.195 190.142 114.632 190.02 114.952 189.774C115.272 189.529 115.432 189.22 115.432 188.846C115.432 188.462 115.262 188.18 114.92 187.998C114.579 187.806 114.051 187.62 113.336 187.438C112.686 187.268 112.152 187.097 111.736 186.926C111.331 186.745 110.979 186.484 110.68 186.142C110.392 185.79 110.248 185.332 110.248 184.766C110.248 184.318 110.382 183.908 110.648 183.534C110.915 183.161 111.294 182.868 111.784 182.654C112.275 182.43 112.835 182.318 113.464 182.318C114.435 182.318 115.219 182.564 115.816 183.054C116.414 183.545 116.734 184.217 116.776 185.07H115.32C115.288 184.612 115.102 184.244 114.76 183.966C114.43 183.689 113.982 183.55 113.416 183.55C112.894 183.55 112.478 183.662 112.168 183.886C111.859 184.11 111.704 184.404 111.704 184.766C111.704 185.054 111.795 185.294 111.976 185.486C112.168 185.668 112.403 185.817 112.68 185.934C112.968 186.041 113.363 186.164 113.864 186.302C114.494 186.473 115.006 186.644 115.4 186.814C115.795 186.974 116.131 187.22 116.408 187.55C116.696 187.881 116.846 188.313 116.856 188.846C116.856 189.326 116.723 189.758 116.456 190.142C116.19 190.526 115.811 190.83 115.32 191.054C114.84 191.268 114.286 191.374 113.656 191.374ZM125.625 179.998V186.718C125.625 187.39 125.791 187.908 126.121 188.27C126.452 188.633 126.937 188.814 127.577 188.814C128.217 188.814 128.708 188.633 129.049 188.27C129.391 187.908 129.561 187.39 129.561 186.718V179.998H132.297V186.702C132.297 187.705 132.084 188.553 131.657 189.246C131.231 189.94 130.655 190.462 129.929 190.814C129.215 191.166 128.415 191.342 127.529 191.342C126.644 191.342 125.849 191.172 125.145 190.83C124.452 190.478 123.903 189.956 123.497 189.262C123.092 188.558 122.889 187.705 122.889 186.702V179.998H125.625ZM136.955 183.566C137.221 183.15 137.589 182.814 138.059 182.558C138.528 182.302 139.077 182.174 139.707 182.174C140.443 182.174 141.109 182.361 141.707 182.734C142.304 183.108 142.773 183.641 143.115 184.334C143.467 185.028 143.643 185.833 143.643 186.75C143.643 187.668 143.467 188.478 143.115 189.182C142.773 189.876 142.304 190.414 141.707 190.798C141.109 191.172 140.443 191.358 139.707 191.358C139.088 191.358 138.539 191.23 138.059 190.974C137.589 190.718 137.221 190.388 136.955 189.982V195.486H134.219V182.302H136.955V183.566ZM140.859 186.75C140.859 186.068 140.667 185.534 140.283 185.15C139.909 184.756 139.445 184.558 138.891 184.558C138.347 184.558 137.883 184.756 137.499 185.15C137.125 185.545 136.939 186.084 136.939 186.766C136.939 187.449 137.125 187.988 137.499 188.382C137.883 188.777 138.347 188.974 138.891 188.974C139.435 188.974 139.899 188.777 140.283 188.382C140.667 187.977 140.859 187.433 140.859 186.75ZM147.814 179.39V191.23H145.078V179.39H147.814ZM153.861 191.358C152.986 191.358 152.197 191.172 151.493 190.798C150.799 190.425 150.25 189.892 149.845 189.198C149.45 188.505 149.253 187.694 149.253 186.766C149.253 185.849 149.455 185.044 149.861 184.35C150.266 183.646 150.821 183.108 151.525 182.734C152.229 182.361 153.018 182.174 153.893 182.174C154.767 182.174 155.557 182.361 156.261 182.734C156.965 183.108 157.519 183.646 157.925 184.35C158.33 185.044 158.533 185.849 158.533 186.766C158.533 187.684 158.325 188.494 157.909 189.198C157.503 189.892 156.943 190.425 156.229 190.798C155.525 191.172 154.735 191.358 153.861 191.358ZM153.861 188.99C154.383 188.99 154.826 188.798 155.189 188.414C155.562 188.03 155.749 187.481 155.749 186.766C155.749 186.052 155.567 185.502 155.205 185.118C154.853 184.734 154.415 184.542 153.893 184.542C153.359 184.542 152.917 184.734 152.565 185.118C152.213 185.492 152.037 186.041 152.037 186.766C152.037 187.481 152.207 188.03 152.549 188.414C152.901 188.798 153.338 188.99 153.861 188.99ZM159.44 186.75C159.44 185.833 159.611 185.028 159.952 184.334C160.304 183.641 160.779 183.108 161.376 182.734C161.974 182.361 162.64 182.174 163.376 182.174C164.006 182.174 164.555 182.302 165.024 182.558C165.504 182.814 165.872 183.15 166.128 183.566V182.302H168.864V191.23H166.128V189.966C165.862 190.382 165.488 190.718 165.008 190.974C164.539 191.23 163.99 191.358 163.36 191.358C162.635 191.358 161.974 191.172 161.376 190.798C160.779 190.414 160.304 189.876 159.952 189.182C159.611 188.478 159.44 187.668 159.44 186.75ZM166.128 186.766C166.128 186.084 165.936 185.545 165.552 185.15C165.179 184.756 164.72 184.558 164.176 184.558C163.632 184.558 163.168 184.756 162.784 185.15C162.411 185.534 162.224 186.068 162.224 186.75C162.224 187.433 162.411 187.977 162.784 188.382C163.168 188.777 163.632 188.974 164.176 188.974C164.72 188.974 165.179 188.777 165.552 188.382C165.936 187.988 166.128 187.449 166.128 186.766ZM170.3 186.75C170.3 185.833 170.47 185.028 170.812 184.334C171.164 183.641 171.638 183.108 172.236 182.734C172.833 182.361 173.5 182.174 174.236 182.174C174.822 182.174 175.356 182.297 175.836 182.542C176.326 182.788 176.71 183.118 176.988 183.534V179.39H179.724V191.23H176.988V189.95C176.732 190.377 176.364 190.718 175.884 190.974C175.414 191.23 174.865 191.358 174.236 191.358C173.5 191.358 172.833 191.172 172.236 190.798C171.638 190.414 171.164 189.876 170.812 189.182C170.47 188.478 170.3 187.668 170.3 186.75ZM176.988 186.766C176.988 186.084 176.796 185.545 176.412 185.15C176.038 184.756 175.58 184.558 175.036 184.558C174.492 184.558 174.028 184.756 173.644 185.15C173.27 185.534 173.084 186.068 173.084 186.75C173.084 187.433 173.27 187.977 173.644 188.382C174.028 188.777 174.492 188.974 175.036 188.974C175.58 188.974 176.038 188.777 176.412 188.382C176.796 187.988 176.988 187.449 176.988 186.766ZM190.119 186.622C190.119 186.878 190.103 187.145 190.071 187.422H183.879C183.922 187.977 184.098 188.404 184.407 188.702C184.727 188.99 185.116 189.134 185.575 189.134C186.258 189.134 186.732 188.846 186.999 188.27H189.911C189.762 188.857 189.49 189.385 189.095 189.854C188.711 190.324 188.226 190.692 187.639 190.958C187.052 191.225 186.396 191.358 185.671 191.358C184.796 191.358 184.018 191.172 183.335 190.798C182.652 190.425 182.119 189.892 181.735 189.198C181.351 188.505 181.159 187.694 181.159 186.766C181.159 185.838 181.346 185.028 181.719 184.334C182.103 183.641 182.636 183.108 183.319 182.734C184.002 182.361 184.786 182.174 185.671 182.174C186.535 182.174 187.303 182.356 187.975 182.718C188.647 183.081 189.17 183.598 189.543 184.27C189.927 184.942 190.119 185.726 190.119 186.622ZM187.319 185.902C187.319 185.433 187.159 185.06 186.839 184.782C186.519 184.505 186.119 184.366 185.639 184.366C185.18 184.366 184.791 184.5 184.471 184.766C184.162 185.033 183.97 185.412 183.895 185.902H187.319ZM191.018 186.75C191.018 185.833 191.189 185.028 191.53 184.334C191.882 183.641 192.357 183.108 192.954 182.734C193.552 182.361 194.218 182.174 194.954 182.174C195.541 182.174 196.074 182.297 196.554 182.542C197.045 182.788 197.429 183.118 197.706 183.534V179.39H200.442V191.23H197.706V189.95C197.45 190.377 197.082 190.718 196.602 190.974C196.133 191.23 195.584 191.358 194.954 191.358C194.218 191.358 193.552 191.172 192.954 190.798C192.357 190.414 191.882 189.876 191.53 189.182C191.189 188.478 191.018 187.668 191.018 186.75ZM197.706 186.766C197.706 186.084 197.514 185.545 197.13 185.15C196.757 184.756 196.298 184.558 195.754 184.558C195.21 184.558 194.746 184.756 194.362 185.15C193.989 185.534 193.802 186.068 193.802 186.75C193.802 187.433 193.989 187.977 194.362 188.382C194.746 188.777 195.21 188.974 195.754 188.974C196.298 188.974 196.757 188.777 197.13 188.382C197.514 187.988 197.706 187.449 197.706 186.766Z" fill="#0E0E0E"/>
</g>
<defs>
<filter id="filter0_d_3_211" x="0" y="0" width="265" height="263.948" filterUnits="userSpaceOnUse" color-interpolation-filters="sRGB">
<feFlood flood-opacity="0" result="BackgroundImageFix"/>
<feColorMatrix in="SourceAlpha" type="matrix" values="0 0 0 0 0 0 0 0 0 0 0 0 0 0 0 0 0 0 127 0" result="hardAlpha"/>
<feOffset/>
<feGaussianBlur stdDeviation="3"/>
<feComposite in2="hardAlpha" operator="out"/>
<feColorMatrix type="matrix" values="0 0 0 0 0 0 0 0 0 0 0 0 0 0 0 0 0 0 0.25 0"/>
<feBlend mode="normal" in2="BackgroundImageFix" result="effect1_dropShadow_3_211"/>
<feBlend mode="normal" in="SourceGraphic" in2="effect1_dropShadow_3_211" result="shape"/>
</filter>
</defs>
</svg>
