<svg width="24" height="24" viewBox="0 0 24 24" fill="none" xmlns="http://www.w3.org/2000/svg">
<path d="M21.0938 3.98438C21.0938 2.5628 19.9372 1.40625 18.5156 1.40625H18V3.51562C18 3.90394 17.6852 4.21875 17.2969 4.21875C16.9086 4.21875 16.5938 3.90394 16.5938 3.51562V1.40625H13.5V3.51562C13.5 3.90394 13.1852 4.21875 12.7969 4.21875C12.4086 4.21875 12.0938 3.90394 12.0938 3.51562V1.40625H9V3.51562C9 3.90394 8.68519 4.21875 8.29688 4.21875C7.90856 4.21875 7.59375 3.90394 7.59375 3.51562V1.40625H4.5V3.51562C4.5 3.90394 4.18519 4.21875 3.79688 4.21875C3.40856 4.21875 3.09375 3.90394 3.09375 3.51562V1.40625H2.57812C1.15655 1.40625 0 2.5628 0 3.98438V6.09375H21.0938V3.98438Z" fill="#5A78DB"/>
<path d="M4.5 0.703125C4.5 0.314812 4.18519 0 3.79688 0C3.40856 0 3.09375 0.314812 3.09375 0.703125V1.40625H4.5V0.703125Z" fill="#5A78DB"/>
<path d="M18 0.703125C18 0.314812 17.6852 0 17.2969 0C16.9086 0 16.5938 0.314812 16.5938 0.703125V1.40625H18V0.703125Z" fill="#5A78DB"/>
<path d="M13.5 0.703125C13.5 0.314812 13.1852 0 12.7969 0C12.4086 0 12.0938 0.314812 12.0938 0.703125V1.40625H13.5V0.703125Z" fill="#5A78DB"/>
<path d="M9 0.703125C9 0.314812 8.68519 0 8.29688 0C7.90856 0 7.59375 0.314812 7.59375 0.703125V1.40625H9V0.703125Z" fill="#5A78DB"/>
<path d="M18.8438 12.2812C19.6338 12.2812 20.3917 12.4216 21.0938 12.6787V7.5H0V18.0469C0 19.21 0.946266 20.1562 2.10938 20.1562H12.4132C12.3268 19.732 12.2812 19.2931 12.2812 18.8438C12.2812 15.2252 15.2252 12.2812 18.8438 12.2812ZM16.2188 9.96094H17.3906C17.7789 9.96094 18.0938 10.2757 18.0938 10.6641C18.0938 11.0524 17.7789 11.3672 17.3906 11.3672H16.2188C15.8304 11.3672 15.5156 11.0524 15.5156 10.6641C15.5156 10.2757 15.8304 9.96094 16.2188 9.96094ZM12.0469 9.96094H13.2188C13.6071 9.96094 13.9219 10.2757 13.9219 10.6641C13.9219 11.0524 13.6071 11.3672 13.2188 11.3672H12.0469C11.6586 11.3672 11.3438 11.0524 11.3438 10.6641C11.3438 10.2757 11.6586 9.96094 12.0469 9.96094ZM4.875 17.6953H3.70312C3.31481 17.6953 3 17.3805 3 16.9922C3 16.6039 3.31481 16.2891 3.70312 16.2891H4.875C5.26331 16.2891 5.57812 16.6039 5.57812 16.9922C5.57812 17.3805 5.26331 17.6953 4.875 17.6953ZM4.875 14.5312H3.70312C3.31481 14.5312 3 14.2164 3 13.8281C3 13.4398 3.31481 13.125 3.70312 13.125H4.875C5.26331 13.125 5.57812 13.4398 5.57812 13.8281C5.57812 14.2164 5.26331 14.5312 4.875 14.5312ZM9.04688 17.6953H7.875C7.48669 17.6953 7.17188 17.3805 7.17188 16.9922C7.17188 16.6039 7.48669 16.2891 7.875 16.2891H9.04688C9.43519 16.2891 9.75 16.6039 9.75 16.9922C9.75 17.3805 9.43519 17.6953 9.04688 17.6953ZM9.04688 14.5312H7.875C7.48669 14.5312 7.17188 14.2164 7.17188 13.8281C7.17188 13.4398 7.48669 13.125 7.875 13.125H9.04688C9.43519 13.125 9.75 13.4398 9.75 13.8281C9.75 14.2164 9.43519 14.5312 9.04688 14.5312ZM9.04688 11.3672H7.875C7.48669 11.3672 7.17188 11.0524 7.17188 10.6641C7.17188 10.2757 7.48669 9.96094 7.875 9.96094H9.04688C9.43519 9.96094 9.75 10.2757 9.75 10.6641C9.75 11.0524 9.43519 11.3672 9.04688 11.3672ZM11.3438 13.8281C11.3438 13.4398 11.6586 13.125 12.0469 13.125H13.2188C13.6071 13.125 13.9219 13.4398 13.9219 13.8281C13.9219 14.2164 13.6071 14.5312 13.2188 14.5312H12.0469C11.6586 14.5312 11.3438 14.2164 11.3438 13.8281Z" fill="#5A78DB"/>
<path d="M18.8438 13.6875C16.0006 13.6875 13.6875 16.0006 13.6875 18.8438C13.6875 21.6869 16.0006 24 18.8438 24C21.6869 24 24 21.6869 24 18.8438C24 16.0006 21.6869 13.6875 18.8438 13.6875ZM21.1875 19.5469H18.8438C18.4554 19.5469 18.1406 19.2321 18.1406 18.8438V16.5C18.1406 16.1117 18.4554 15.7969 18.8438 15.7969C19.2321 15.7969 19.5469 16.1117 19.5469 16.5V18.1406H21.1875C21.5758 18.1406 21.8906 18.4554 21.8906 18.8438C21.8906 19.2321 21.5758 19.5469 21.1875 19.5469Z" fill="#5A78DB"/>
</svg>
