<svg width="40" height="36" viewBox="0 0 40 36" fill="none" xmlns="http://www.w3.org/2000/svg">
<path d="M20 26.4C23.5346 26.4 26.4 23.5346 26.4 20C26.4 16.4654 23.5346 13.6 20 13.6C16.4654 13.6 13.6 16.4654 13.6 20C13.6 23.5346 16.4654 26.4 20 26.4Z" fill="white"/>
<path d="M14 0L10.34 4H4C1.8 4 0 5.8 0 8V32C0 34.2 1.8 36 4 36H36C38.2 36 40 34.2 40 32V8C40 5.8 38.2 4 36 4H29.66L26 0H14ZM20 30C14.48 30 10 25.52 10 20C10 14.48 14.48 10 20 10C25.52 10 30 14.48 30 20C30 25.52 25.52 30 20 30Z" fill="white"/>
</svg>
