<svg width="27" height="34" viewBox="0 0 27 34" fill="none" xmlns="http://www.w3.org/2000/svg">
<path d="M8.4375 17H18.5625C19.0406 17 19.4417 16.8368 19.7657 16.5104C20.0886 16.1851 20.25 15.7817 20.25 15.3C20.25 14.8183 20.0886 14.4143 19.7657 14.0879C19.4417 13.7626 19.0406 13.6 18.5625 13.6H8.4375C7.95937 13.6 7.55888 13.7626 7.236 14.0879C6.912 14.4143 6.75 14.8183 6.75 15.3C6.75 15.7817 6.912 16.1851 7.236 16.5104C7.55888 16.8368 7.95937 17 8.4375 17ZM8.4375 10.2H18.5625C19.0406 10.2 19.4417 10.0374 19.7657 9.7121C20.0886 9.3857 20.25 8.98167 20.25 8.5C20.25 8.01833 20.0886 7.6143 19.7657 7.2879C19.4417 6.96263 19.0406 6.8 18.5625 6.8H8.4375C7.95937 6.8 7.55888 6.96263 7.236 7.2879C6.912 7.6143 6.75 8.01833 6.75 8.5C6.75 8.98167 6.912 9.3857 7.236 9.7121C7.55888 10.0374 7.95937 10.2 8.4375 10.2ZM26.9156 31.4075L20.0812 22.44C19.6031 21.7883 19.0125 21.2851 18.3094 20.9304C17.6063 20.5768 16.8469 20.4 16.0312 20.4H0V3.4C0 2.465 0.33075 1.6643 0.99225 0.9979C1.65262 0.332633 2.44688 0 3.375 0H23.625C24.5531 0 25.3479 0.332633 26.0094 0.9979C26.6698 1.6643 27 2.465 27 3.4V30.6C27 30.7417 26.9933 30.8765 26.9798 31.0046C26.9651 31.1315 26.9438 31.2658 26.9156 31.4075ZM3.375 34C2.44688 34 1.65262 33.6674 0.99225 33.0021C0.33075 32.3357 0 31.535 0 30.6V23.8H16.0312C16.3125 23.8 16.5729 23.864 16.8126 23.9921C17.0511 24.119 17.2547 24.2958 17.4234 24.5225L24.5109 33.8725C24.3703 33.9292 24.2229 33.9649 24.0688 33.9796C23.9136 33.9932 23.7656 34 23.625 34H3.375Z" fill="black"/>
</svg>
