<svg width="34" height="27" viewBox="0 0 34 27" fill="none" xmlns="http://www.w3.org/2000/svg">
<path d="M15.3 20.25C15.3 20.7281 15.4632 21.1286 15.7896 21.4515C16.1149 21.7755 16.5183 21.9375 17 21.9375C17.4817 21.9375 17.8857 21.7828 18.2121 21.4734C18.5374 21.1641 18.7 20.7703 18.7 20.2922V15.1875H21.76C22.1567 15.1875 22.4185 15.012 22.5454 14.661C22.6735 14.3089 22.61 14.0062 22.355 13.7531L17.595 9.02813C17.425 8.85938 17.2267 8.775 17 8.775C16.7733 8.775 16.575 8.85938 16.405 9.02813L11.645 13.7531C11.39 14.0062 11.3265 14.3089 11.4546 14.661C11.5815 15.012 11.8433 15.1875 12.24 15.1875H15.3V20.25ZM3.4 27C2.465 27 1.66487 26.6698 0.9996 26.0094C0.3332 25.3479 0 24.5531 0 23.625V3.375C0 2.44688 0.3332 1.65262 0.9996 0.99225C1.66487 0.33075 2.465 0 3.4 0H12.1975C12.6508 0 13.0832 0.0843752 13.4946 0.253125C13.9049 0.421875 14.2658 0.660937 14.5775 0.970312L17 3.375H30.6C31.535 3.375 32.3357 3.70575 33.0021 4.36725C33.6674 5.02762 34 5.82188 34 6.75V23.625C34 24.5531 33.6674 25.3479 33.0021 26.0094C32.3357 26.6698 31.535 27 30.6 27H3.4Z" fill="white"/>
</svg>
